<svg width="24" height="24" viewBox="0 0 24 24" fill="none" xmlns="http://www.w3.org/2000/svg">
<path d="M22.399 4.818H12.472L10.925 0H1.597C0.718 0 0 0.719 0 1.599V17.874C0 18.752 0.72 19.471 1.597 19.471H11.597L13.07 24H22.398C23.276 24 23.995 23.293 23.995 22.428V6.39C23.995 5.525 23.276 4.818 22.399 4.818ZM6.739 13.498C4.669 13.498 2.989 11.818 2.989 9.748C2.989 7.678 4.669 5.998 6.739 5.998C7.751 5.998 8.599 6.373 9.251 6.974L8.261 7.926C7.84717 7.54361 7.3024 7.33458 6.739 7.342C5.434 7.342 4.376 8.422 4.376 9.751C4.376 11.08 5.434 12.16 6.738 12.16C8.245 12.16 8.868 11.08 8.928 10.352L6.74 10.35V9.066H10.25C10.3 9.296 10.34 9.523 10.34 9.83C10.34 11.977 8.906 13.499 6.738 13.499L6.739 13.498ZM23.496 22.428C23.496 23.018 23.004 23.5 22.399 23.5H13.524L17.173 19.47H17.178L16.438 17.168L16.444 17.163C16.444 17.163 17.012 16.675 17.721 15.923C18.433 16.694 19.351 17.622 20.539 18.728L21.31 17.956C20.038 16.802 19.106 15.886 18.42 15.151C19.339 14.064 20.272 12.696 20.469 11.444H22.503V11.446H22.505V10.506H17.973V8.986H16.502V10.506H14.298L12.626 5.296L12.632 5.318H22.399C23.004 5.318 23.496 5.798 23.496 6.39V22.428ZM17.012 15.117C16.476 15.665 16.069 15.99 16.069 15.99L16.061 15.994L14.601 11.446H19.365C19.058 12.53 18.377 13.554 17.714 14.35C16.538 12.958 16.534 12.506 16.534 12.506H15.312C15.312 12.506 15.362 13.185 17.012 15.117Z" fill="black"/>
</svg>
